# xmcd
#
# Track frame offsets: 
#        150
#        38301
#        62214
#        94988
#        115076
#        155234
#        195800
#        239850
#
# Disc length: 3676 seconds
#
# Revision: 0
# Processed by: cddbd v1.5.2PL0 Copyright (c) Steve Scherf et al.
# Submitted via: ExactAudioCopyFreeDBPlugin 1.0
#
DISCID=660e5a08
DTITLE=South Side Slim - Live At The Alley, Santa Cruz, CA - CD2
DYEAR=2004
DGENRE=Blues
TTITLE0=Five Steps
TTITLE1=That's All I Need
TTITLE2=Roadhouse Blues
TTITLE3=Let's Boogie
TTITLE4=It's Just A Thing
TTITLE5=Funky Chicken
TTITLE6=Kitchen Floor
TTITLE7=Raising Hell
EXTD=
EXTT0=
EXTT1=
EXTT2=
EXTT3=
EXTT4=
EXTT5=
EXTT6=
EXTT7=
PLAYORDER=
